<?xml version="1.0" encoding="UTF-8" standalone="no"?>
<!-- Created with Inkscape (http://www.inkscape.org/) -->

<svg
   xmlns:dc="http://purl.org/dc/elements/1.1/"
   xmlns:cc="http://creativecommons.org/ns#"
   xmlns:rdf="http://www.w3.org/1999/02/22-rdf-syntax-ns#"
   xmlns:svg="http://www.w3.org/2000/svg"
   xmlns="http://www.w3.org/2000/svg"
   xmlns:sodipodi="http://sodipodi.sourceforge.net/DTD/sodipodi-0.dtd"
   xmlns:inkscape="http://www.inkscape.org/namespaces/inkscape"
   version="1.1"
   id="svg7862"
   xml:space="preserve"
   width="800"
   height="800"
   viewBox="0 0 800 800"
   sodipodi:docname="logo-design-element-#12.svg"
   inkscape:version="0.92.4 (5da689c313, 2019-01-14)"><metadata
     id="metadata7868"><rdf:RDF><cc:Work
         rdf:about=""><dc:format>image/svg+xml</dc:format><dc:type
           rdf:resource="http://purl.org/dc/dcmitype/StillImage" /><dc:title></dc:title></cc:Work></rdf:RDF></metadata><defs
     id="defs7866"><clipPath
       clipPathUnits="userSpaceOnUse"
       id="clipPath7878"><path
         d="M 0,600 H 600 V 0 H 0 Z"
         id="path7876"
         inkscape:connector-curvature="0" /></clipPath><linearGradient
       x1="0"
       y1="0"
       x2="1"
       y2="0"
       gradientUnits="userSpaceOnUse"
       gradientTransform="matrix(434.34082,0,0,-434.34082,80.78125,328.19043)"
       spreadMethod="pad"
       id="linearGradient7902"><stop
         style="stop-opacity:1;stop-color:#1aaeec"
         offset="0"
         id="stop7892" /><stop
         style="stop-opacity:1;stop-color:#4253a7"
         offset="0.297753"
         id="stop7894" /><stop
         style="stop-opacity:1;stop-color:#e70c8d"
         offset="0.646067"
         id="stop7896" /><stop
         style="stop-opacity:1;stop-color:#e33c47"
         offset="0.955056"
         id="stop7898" /><stop
         style="stop-opacity:1;stop-color:#e33c47"
         offset="1"
         id="stop7900" /></linearGradient></defs><sodipodi:namedview
     pagecolor="#ffffff"
     bordercolor="#666666"
     borderopacity="1"
     objecttolerance="10"
     gridtolerance="10"
     guidetolerance="10"
     inkscape:pageopacity="0"
     inkscape:pageshadow="2"
     inkscape:window-width="1920"
     inkscape:window-height="1018"
     id="namedview7864"
     showgrid="false"
     inkscape:zoom="0.82932119"
     inkscape:cx="454.23729"
     inkscape:cy="403.38983"
     inkscape:window-x="-8"
     inkscape:window-y="-8"
     inkscape:window-maximized="1"
     inkscape:current-layer="g7870" /><g
     id="g7870"
     inkscape:groupmode="layer"
     inkscape:label="logotype-element-12-publicdomainvectors.org"
     transform="matrix(1.3333333,0,0,-1.3333333,0,800)"><g
       id="g7872"><g
         id="g7874"
         clip-path="url(#clipPath7878)"><g
           id="g7880"><g
             id="g7882"><g
               id="g7888"><g
                 id="g7890"><path
                   d="m 416.075,437.888 c -6.898,-8.983 -5.204,-21.855 3.774,-28.747 8.984,-6.899 21.851,-5.206 28.747,3.775 6.894,8.978 5.205,21.851 -3.775,28.744 -8.982,6.895 -21.85,5.206 -28.746,-3.772 m -30.901,-38.139 c -5.537,-7.338 -4.078,-17.778 3.258,-23.316 7.338,-5.538 17.78,-4.079 23.312,3.257 5.543,7.341 4.079,17.781 -3.257,23.316 -7.336,5.538 -17.777,4.08 -23.313,-3.257 M 420.98,387.86 c -6.301,-7.408 -5.403,-18.52 2.009,-24.821 7.407,-6.301 18.523,-5.399 24.824,2.008 6.296,7.408 5.396,18.522 -2.008,24.823 -7.414,6.3 -18.53,5.402 -24.825,-2.01 m 35.614,-14.376 c -7.09,-7.413 -6.821,-19.172 0.593,-26.259 7.415,-7.09 19.171,-6.824 26.261,0.596 7.087,7.41 6.822,19.166 -0.592,26.256 -7.418,7.09 -19.175,6.821 -26.262,-0.593 m -135.443,-5.179 c -3.58,-5.468 -2.052,-12.795 3.412,-16.376 5.467,-3.58 12.796,-2.05 16.374,3.412 3.582,5.464 2.052,12.794 -3.411,16.378 -5.461,3.577 -12.791,2.047 -16.375,-3.414 m 33.46,-7.604 c -4.208,-5.675 -3.024,-13.684 2.652,-17.893 5.674,-4.207 13.686,-3.02 17.894,2.651 4.205,5.675 3.02,13.688 -2.65,17.895 -5.677,4.206 -13.693,3.025 -17.896,-2.653 m 33.545,-9.934 c -4.868,-5.827 -4.096,-14.501 1.733,-19.375 5.825,-4.873 14.5,-4.094 19.371,1.73 4.877,5.832 4.101,14.503 -1.727,19.377 -5.826,4.874 -14.5,4.097 -19.377,-1.732 m 33.487,-12.288 c -5.568,-5.924 -5.28,-15.239 0.64,-20.81 5.924,-5.565 15.238,-5.271 20.806,0.644 5.567,5.924 5.278,15.242 -0.646,20.807 -5.92,5.568 -15.234,5.277 -20.8,-0.641 m 33.255,-14.684 c -6.294,-5.954 -6.563,-15.879 -0.609,-22.168 5.955,-6.289 15.882,-6.56 22.171,-0.606 6.286,5.954 6.565,15.88 0.604,22.169 -5.954,6.292 -15.879,6.562 -22.166,0.605 m 32.853,-17.078 c -7.03,-5.924 -7.93,-16.429 -2.009,-23.456 5.922,-7.033 16.425,-7.933 23.457,-2.012 7.033,5.925 7.929,16.429 2.008,23.454 -5.924,7.036 -16.424,7.935 -23.456,2.014 m -132.112,6.037 c -3.472,-4.231 -2.865,-10.466 1.36,-13.94 4.226,-3.47 10.464,-2.859 13.934,1.365 3.472,4.221 2.866,10.463 -1.362,13.933 -4.221,3.471 -10.457,2.863 -13.932,-1.358 m 31.292,-10.226 c -4.07,-4.415 -3.803,-11.282 0.602,-15.354 4.405,-4.076 11.281,-3.807 15.352,0.601 4.074,4.403 3.803,11.276 -0.599,15.352 -4.405,4.07 -11.28,3.804 -15.355,-0.599 m 31.193,-12.486 c -4.702,-4.536 -4.845,-12.021 -0.313,-16.728 4.53,-4.705 12.016,-4.85 16.72,-0.318 4.71,4.53 4.85,12.018 0.32,16.726 -4.529,4.702 -12.018,4.846 -16.727,0.32 m 30.94,-14.773 c -5.363,-4.598 -5.989,-12.67 -1.392,-18.037 4.591,-5.366 12.672,-5.986 18.035,-1.394 5.366,4.593 5.987,12.67 1.393,18.037 -4.594,5.363 -12.669,5.992 -18.036,1.394 m 30.517,-17.067 c -6.046,-4.595 -7.224,-13.224 -2.625,-19.27 4.598,-6.048 13.228,-7.223 19.273,-2.628 6.05,4.598 7.223,13.227 2.631,19.276 -4.6,6.049 -13.233,7.221 -19.279,2.622 m -98.008,-2.871 c -3.148,-3.079 -3.2,-8.131 -0.121,-11.275 3.082,-3.148 8.13,-3.199 11.276,-0.122 3.147,3.079 3.201,8.13 0.12,11.275 -3.082,3.147 -8.127,3.201 -11.275,0.122 m 28.958,-12.475 c -3.721,-3.239 -4.11,-8.884 -0.871,-12.604 3.246,-3.72 8.888,-4.114 12.61,-0.869 3.721,3.242 4.11,8.885 0.871,12.604 -3.244,3.724 -8.888,4.118 -12.61,0.869 m 28.685,-14.648 c -4.325,-3.343 -5.117,-9.561 -1.775,-13.886 3.344,-4.325 9.562,-5.117 13.89,-1.78 4.323,3.35 5.117,9.57 1.774,13.896 -3.346,4.322 -9.567,5.117 -13.889,1.77 M 188.253,446.314 c 8.983,-6.9 21.855,-5.206 28.747,3.773 6.899,8.985 5.207,21.852 -3.774,28.747 -8.978,6.895 -21.851,5.205 -28.745,-3.774 -6.895,-8.983 -5.206,-21.852 3.772,-28.746 m 38.14,-30.903 c 7.337,-5.537 17.778,-4.078 23.316,3.26 5.539,7.336 4.078,17.779 -3.258,23.312 -7.341,5.541 -17.78,4.079 -23.316,-3.257 -5.538,-7.336 -4.08,-17.777 3.258,-23.315 m 11.888,35.807 c 7.407,-6.302 18.521,-5.404 24.822,2.01 6.299,7.407 5.399,18.522 -2.01,24.823 -7.407,6.297 -18.521,5.396 -24.822,-2.008 -6.299,-7.413 -5.402,-18.529 2.01,-24.825 m 14.377,35.614 c 7.413,-7.09 19.172,-6.82 26.26,0.593 7.088,7.415 6.821,19.172 -0.597,26.262 -7.412,7.086 -19.168,6.819 -26.257,-0.592 -7.089,-7.418 -6.821,-19.176 0.594,-26.263 m 5.178,-135.442 c 5.469,-3.581 12.796,-2.053 16.377,3.411 3.579,5.467 2.05,12.798 -3.412,16.375 -5.466,3.581 -12.796,2.053 -16.378,-3.411 -3.576,-5.462 -2.048,-12.792 3.413,-16.375 m 7.604,33.46 c 5.674,-4.208 13.684,-3.025 17.893,2.651 4.208,5.674 3.021,13.687 -2.652,17.893 -5.675,4.207 -13.686,3.02 -17.892,-2.65 -4.208,-5.677 -3.026,-13.691 2.651,-17.894 m 9.934,33.545 c 5.826,-4.87 14.5,-4.097 19.374,1.732 4.874,5.825 4.096,14.5 -1.729,19.372 -5.832,4.876 -14.502,4.099 -19.377,-1.727 -4.873,-5.828 -4.096,-14.501 1.732,-19.377 m 12.287,33.486 c 5.924,-5.568 15.24,-5.279 20.811,0.64 5.566,5.925 5.272,15.238 -0.644,20.806 -5.923,5.569 -15.241,5.279 -20.807,-0.645 -5.569,-5.92 -5.278,-15.235 0.64,-20.801 m 14.686,33.254 c 5.952,-6.292 15.879,-6.562 22.169,-0.609 6.289,5.956 6.558,15.882 0.603,22.171 -5.953,6.288 -15.88,6.565 -22.167,0.606 -6.292,-5.954 -6.561,-15.88 -0.605,-22.168 m 17.078,32.853 c 5.923,-7.029 16.428,-7.929 23.455,-2.007 7.033,5.921 7.933,16.423 2.012,23.455 -5.923,7.033 -16.428,7.931 -23.454,2.01 -7.035,-5.925 -7.934,-16.425 -2.013,-23.458 m -6.036,-132.111 c 4.228,-3.472 10.464,-2.864 13.937,1.362 3.471,4.224 2.861,10.463 -1.363,13.932 -4.223,3.473 -10.464,2.866 -13.934,-1.361 -3.471,-4.222 -2.863,-10.459 1.36,-13.933 m 10.225,31.292 c 4.412,-4.071 11.282,-3.802 15.355,0.602 4.074,4.406 3.805,11.283 -0.604,15.353 -4.402,4.074 -11.276,3.803 -15.351,-0.601 -4.071,-4.405 -3.802,-11.279 0.6,-15.354 m 12.486,31.193 c 4.534,-4.703 12.019,-4.844 16.728,-0.313 4.705,4.531 4.849,12.016 0.316,16.721 -4.529,4.709 -12.017,4.849 -16.725,0.319 -4.702,-4.528 -4.848,-12.017 -0.319,-16.727 m 14.773,30.94 c 4.597,-5.364 12.67,-5.988 18.036,-1.392 5.367,4.591 5.987,12.671 1.395,18.035 -4.594,5.367 -12.67,5.988 -18.036,1.393 -5.366,-4.593 -5.993,-12.669 -1.395,-18.036 m 17.065,30.518 c 4.596,-6.048 13.226,-7.225 19.27,-2.626 6.049,4.598 7.226,13.226 2.63,19.274 -4.6,6.05 -13.229,7.221 -19.277,2.631 -6.048,-4.601 -7.221,-13.234 -2.623,-19.279 m 2.874,-98.009 c 3.079,-3.149 8.128,-3.201 11.275,-0.121 3.147,3.082 3.196,8.13 0.12,11.276 -3.079,3.146 -8.13,3.201 -11.274,0.12 -3.148,-3.082 -3.203,-8.128 -0.121,-11.275 m 12.472,28.959 c 3.24,-3.722 8.884,-4.11 12.606,-0.871 3.718,3.246 4.113,8.886 0.869,12.609 -3.242,3.721 -8.885,4.11 -12.606,0.871 -3.721,-3.243 -4.116,-8.889 -0.869,-12.609 m 14.65,28.684 c 3.343,-4.326 9.561,-5.119 13.886,-1.774 4.324,3.343 5.118,9.561 1.779,13.888 -3.35,4.325 -9.569,5.119 -13.894,1.774 -4.322,-3.345 -5.117,-9.567 -1.771,-13.888 M 179.827,218.493 c 6.9,8.983 5.205,21.854 -3.773,28.745 -8.984,6.901 -21.851,5.206 -28.748,-3.773 -6.894,-8.98 -5.204,-21.852 3.776,-28.745 8.982,-6.895 21.85,-5.206 28.745,3.773 m 30.902,38.137 c 5.539,7.337 4.079,17.778 -3.257,23.317 -7.338,5.538 -17.781,4.079 -23.314,-3.26 -5.542,-7.339 -4.078,-17.779 3.258,-23.314 7.336,-5.538 17.776,-4.082 23.313,3.257 m -35.806,11.891 c 6.302,7.407 5.403,18.519 -2.009,24.82 -7.408,6.301 -18.524,5.399 -24.824,-2.011 -6.297,-7.405 -5.396,-18.52 2.008,-24.821 7.413,-6.298 18.529,-5.403 24.825,2.012 m -35.614,14.375 c 7.089,7.413 6.819,19.172 -0.594,26.259 -7.414,7.09 -19.17,6.824 -26.26,-0.596 -7.087,-7.411 -6.821,-19.169 0.592,-26.256 7.417,-7.09 19.175,-6.821 26.262,0.593 m 135.441,5.179 c 3.583,5.468 2.054,12.795 -3.412,16.375 -5.466,3.581 -12.795,2.05 -16.372,-3.411 -3.584,-5.465 -2.053,-12.795 3.411,-16.378 5.459,-3.578 12.791,-2.047 16.373,3.414 m -33.459,7.604 c 4.209,5.675 3.025,13.681 -2.653,17.893 -5.672,4.207 -13.684,3.02 -17.891,-2.652 -4.206,-5.674 -3.019,-13.688 2.649,-17.894 5.678,-4.206 13.692,-3.026 17.895,2.653 m -33.546,9.934 c 4.871,5.826 4.098,14.501 -1.731,19.375 -5.825,4.873 -14.501,4.094 -19.372,-1.73 -4.876,-5.832 -4.1,-14.503 1.727,-19.377 5.827,-4.874 14.502,-4.097 19.376,1.732 m -33.484,12.284 c 5.567,5.928 5.279,15.243 -0.641,20.813 -5.925,5.566 -15.238,5.272 -20.806,-0.643 -5.568,-5.924 -5.279,-15.242 0.644,-20.81 5.921,-5.565 15.236,-5.275 20.803,0.64 m -33.256,14.688 c 6.293,5.954 6.562,15.879 0.61,22.168 -5.956,6.289 -15.883,6.56 -22.172,0.606 -6.287,-5.954 -6.565,-15.88 -0.604,-22.169 5.953,-6.292 15.879,-6.562 22.166,-0.605 m -32.852,17.078 c 7.03,5.924 7.929,16.428 2.007,23.456 -5.921,7.034 -16.424,7.933 -23.455,2.011 -7.034,-5.923 -7.931,-16.428 -2.009,-23.453 5.924,-7.036 16.424,-7.935 23.457,-2.014 m 132.111,-6.037 c 3.472,4.23 2.864,10.466 -1.362,13.94 -4.224,3.471 -10.463,2.859 -13.933,-1.365 -3.471,-4.221 -2.865,-10.463 1.363,-13.933 4.221,-3.471 10.458,-2.863 13.932,1.358 m -31.294,10.226 c 4.073,4.414 3.805,11.281 -0.599,15.355 -4.407,4.075 -11.283,3.805 -15.353,-0.603 -4.075,-4.402 -3.804,-11.275 0.6,-15.352 4.405,-4.072 11.279,-3.803 15.352,0.6 m -31.192,12.486 c 4.703,4.536 4.845,12.02 0.314,16.728 -4.53,4.705 -12.016,4.85 -16.722,0.317 -4.708,-4.529 -4.848,-12.02 -0.318,-16.725 4.529,-4.702 12.017,-4.85 16.726,-0.32 m -30.939,14.774 c 5.363,4.596 5.988,12.67 1.392,18.036 -4.591,5.367 -12.671,5.986 -18.035,1.394 -5.366,-4.595 -5.988,-12.669 -1.393,-18.036 4.594,-5.367 12.669,-5.993 18.036,-1.394 m -30.517,17.065 c 6.046,4.596 7.224,13.226 2.625,19.27 -4.599,6.049 -13.227,7.225 -19.273,2.63 -6.05,-4.6 -7.223,-13.231 -2.632,-19.278 4.601,-6.047 13.233,-7.22 19.28,-2.622 m 98.009,2.873 c 3.147,3.079 3.199,8.129 0.118,11.274 -3.082,3.149 -8.128,3.197 -11.274,0.121 -3.147,-3.079 -3.201,-8.129 -0.12,-11.274 3.082,-3.147 8.128,-3.202 11.276,-0.121 m -28.959,12.472 c 3.72,3.241 4.11,8.885 0.87,12.606 -3.245,3.718 -8.887,4.114 -12.609,0.87 -3.722,-3.243 -4.11,-8.885 -0.871,-12.606 3.243,-3.722 8.888,-4.117 12.61,-0.87 m -28.685,14.65 c 4.326,3.344 5.118,9.56 1.774,13.887 -3.344,4.323 -9.562,5.117 -13.889,1.778 -4.324,-3.349 -5.117,-9.568 -1.774,-13.895 3.346,-4.321 9.568,-5.116 13.889,-1.77 M 407.649,210.065 c -8.982,6.9 -21.854,5.206 -28.747,-3.773 -6.898,-8.983 -5.206,-21.852 3.775,-28.746 8.978,-6.894 21.851,-5.206 28.744,3.773 6.895,8.983 5.206,21.852 -3.772,28.746 m -38.139,30.902 c -7.337,5.539 -17.778,4.079 -23.317,-3.257 -5.538,-7.339 -4.077,-17.781 3.259,-23.314 7.341,-5.542 17.78,-4.079 23.316,3.257 5.538,7.336 4.08,17.779 -3.258,23.314 m -11.888,-35.806 c -7.407,6.301 -18.521,5.402 -24.822,-2.008 -6.3,-7.407 -5.4,-18.523 2.01,-24.824 7.407,-6.298 18.521,-5.395 24.822,2.009 6.3,7.413 5.402,18.528 -2.01,24.823 m -14.377,-35.612 c -7.414,7.09 -19.173,6.819 -26.26,-0.594 -7.089,-7.416 -6.821,-19.173 0.596,-26.263 7.412,-7.087 19.169,-6.819 26.257,0.594 7.09,7.416 6.821,19.176 -0.593,26.263 m -5.179,135.438 c -5.468,3.584 -12.795,2.056 -16.376,-3.411 -3.579,-5.465 -2.049,-12.795 3.412,-16.372 5.465,-3.584 12.795,-2.053 16.377,3.411 3.577,5.459 2.049,12.791 -3.413,16.372 m -7.604,-33.459 c -5.673,4.209 -13.683,3.026 -17.893,-2.652 -4.208,-5.672 -3.019,-13.685 2.653,-17.891 5.674,-4.207 13.685,-3.02 17.892,2.649 4.208,5.679 3.026,13.69 -2.652,17.894 m -9.934,-33.546 c -5.826,4.872 -14.5,4.101 -19.374,-1.732 -4.874,-5.823 -4.094,-14.5 1.73,-19.371 5.832,-4.874 14.502,-4.1 19.377,1.729 4.873,5.827 4.095,14.5 -1.733,19.374 M 308.241,204.5 c -5.924,5.565 -15.24,5.277 -20.809,-0.641 -5.567,-5.927 -5.274,-15.239 0.643,-20.807 5.923,-5.569 15.24,-5.281 20.807,0.646 5.568,5.919 5.277,15.234 -0.641,20.802 m -14.685,-33.258 c -5.952,6.295 -15.878,6.563 -22.169,0.612 -6.289,-5.958 -6.559,-15.883 -0.604,-22.172 5.954,-6.286 15.88,-6.565 22.167,-0.606 6.292,5.954 6.563,15.88 0.606,22.166 m -17.078,-32.85 c -5.923,7.03 -16.428,7.928 -23.455,2.007 -7.034,-5.92 -7.934,-16.422 -2.011,-23.456 5.922,-7.033 16.426,-7.929 23.453,-2.008 7.035,5.924 7.933,16.422 2.013,23.457 m 6.037,132.11 c -4.23,3.474 -10.465,2.865 -13.939,-1.362 -3.471,-4.224 -2.859,-10.463 1.363,-13.934 4.223,-3.471 10.464,-2.862 13.934,1.365 3.473,4.221 2.864,10.457 -1.358,13.931 m -10.226,-31.294 c -4.413,4.073 -11.282,3.803 -15.355,-0.6 -4.074,-4.405 -3.806,-11.281 0.604,-15.354 4.402,-4.073 11.275,-3.803 15.352,0.602 4.07,4.406 3.801,11.279 -0.601,15.352 m -12.486,-31.192 c -4.534,4.704 -12.019,4.846 -16.728,0.314 -4.705,-4.53 -4.849,-12.015 -0.316,-16.723 4.528,-4.708 12.017,-4.847 16.725,-0.317 4.702,4.53 4.847,12.018 0.319,16.726 M 245.03,177.077 c -4.597,5.363 -12.67,5.986 -18.037,1.392 -5.366,-4.589 -5.986,-12.67 -1.394,-18.033 4.593,-5.367 12.67,-5.99 18.036,-1.395 5.365,4.595 5.993,12.67 1.395,18.036 m -17.065,-30.516 c -4.597,6.045 -13.226,7.223 -19.271,2.623 -6.048,-4.599 -7.225,-13.225 -2.63,-19.271 4.6,-6.052 13.229,-7.224 19.278,-2.632 6.048,4.602 7.221,13.235 2.623,19.28 m -2.873,98.007 c -3.079,3.148 -8.13,3.202 -11.276,0.12 -3.148,-3.084 -3.196,-8.129 -0.12,-11.274 3.079,-3.147 8.13,-3.2 11.274,-0.121 3.148,3.082 3.202,8.128 0.122,11.275 m -12.473,-28.959 c -3.241,3.72 -8.885,4.112 -12.606,0.87 -3.719,-3.243 -4.113,-8.885 -0.869,-12.608 3.242,-3.723 8.884,-4.108 12.606,-0.872 3.721,3.242 4.116,8.891 0.869,12.61 m -16.421,-42.572 c -4.325,-3.344 -10.545,-2.551 -13.894,1.774 -3.339,4.325 -2.545,10.543 1.779,13.889 4.325,3.344 10.542,2.551 13.886,-1.777 3.346,-4.319 2.551,-10.54 -1.771,-13.886"
                   style="fill:url(#linearGradient7902);stroke:none"
                   id="path7904"
                   inkscape:connector-curvature="0" /></g></g></g></g><path
           d="m 416.075,437.888 c -6.898,-8.983 -5.204,-21.855 3.774,-28.747 8.984,-6.899 21.851,-5.206 28.747,3.775 6.894,8.978 5.205,21.851 -3.775,28.744 -8.982,6.895 -21.85,5.206 -28.746,-3.772 z m -30.901,-38.139 c -5.537,-7.338 -4.078,-17.778 3.258,-23.316 7.338,-5.538 17.78,-4.079 23.312,3.257 5.543,7.341 4.079,17.781 -3.257,23.316 -7.336,5.538 -17.777,4.08 -23.313,-3.257 z M 420.98,387.86 c -6.301,-7.408 -5.403,-18.52 2.009,-24.821 7.407,-6.301 18.523,-5.399 24.824,2.008 6.296,7.408 5.396,18.522 -2.008,24.823 -7.414,6.3 -18.53,5.402 -24.825,-2.01 z m 35.614,-14.376 c -7.09,-7.413 -6.821,-19.172 0.593,-26.259 7.415,-7.09 19.171,-6.824 26.261,0.596 7.087,7.41 6.822,19.166 -0.592,26.256 -7.418,7.09 -19.175,6.821 -26.262,-0.593 z m -135.443,-5.179 c -3.58,-5.468 -2.052,-12.795 3.412,-16.376 5.467,-3.58 12.796,-2.05 16.374,3.412 3.582,5.464 2.052,12.794 -3.411,16.378 -5.461,3.577 -12.791,2.047 -16.375,-3.414 z m 33.46,-7.604 c -4.208,-5.675 -3.024,-13.684 2.652,-17.893 5.674,-4.207 13.686,-3.02 17.894,2.651 4.205,5.675 3.02,13.688 -2.65,17.895 -5.677,4.206 -13.693,3.025 -17.896,-2.653 z m 33.545,-9.934 c -4.868,-5.827 -4.096,-14.501 1.733,-19.375 5.825,-4.873 14.5,-4.094 19.371,1.73 4.877,5.832 4.101,14.503 -1.727,19.377 -5.826,4.874 -14.5,4.097 -19.377,-1.732 z m 33.487,-12.288 c -5.568,-5.924 -5.28,-15.239 0.64,-20.81 5.924,-5.565 15.238,-5.271 20.806,0.644 5.567,5.924 5.278,15.242 -0.646,20.807 -5.92,5.568 -15.234,5.277 -20.8,-0.641 z m 33.255,-14.684 c -6.294,-5.954 -6.563,-15.879 -0.609,-22.168 5.955,-6.289 15.882,-6.56 22.171,-0.606 6.286,5.954 6.565,15.88 0.604,22.169 -5.954,6.292 -15.879,6.562 -22.166,0.605 z m 32.853,-17.078 c -7.03,-5.924 -7.93,-16.429 -2.009,-23.456 5.922,-7.033 16.425,-7.933 23.457,-2.012 7.033,5.925 7.929,16.429 2.008,23.454 -5.924,7.036 -16.424,7.935 -23.456,2.014 z m -132.112,6.037 c -3.472,-4.231 -2.865,-10.466 1.36,-13.94 4.226,-3.47 10.464,-2.859 13.934,1.365 3.472,4.221 2.866,10.463 -1.362,13.933 -4.221,3.471 -10.457,2.863 -13.932,-1.358 z m 31.292,-10.226 c -4.07,-4.415 -3.803,-11.282 0.602,-15.354 4.405,-4.076 11.281,-3.807 15.352,0.601 4.074,4.403 3.803,11.276 -0.599,15.352 -4.405,4.07 -11.28,3.804 -15.355,-0.599 z m 31.193,-12.486 c -4.702,-4.536 -4.845,-12.021 -0.313,-16.728 4.53,-4.705 12.016,-4.85 16.72,-0.318 4.71,4.53 4.85,12.018 0.32,16.726 -4.529,4.702 -12.018,4.846 -16.727,0.32 z m 30.94,-14.773 c -5.363,-4.598 -5.989,-12.67 -1.392,-18.037 4.591,-5.366 12.672,-5.986 18.035,-1.394 5.366,4.593 5.987,12.67 1.393,18.037 -4.594,5.363 -12.669,5.992 -18.036,1.394 z m 30.517,-17.067 c -6.046,-4.595 -7.224,-13.224 -2.625,-19.27 4.598,-6.048 13.228,-7.223 19.273,-2.628 6.05,4.598 7.223,13.227 2.631,19.276 -4.6,6.049 -13.233,7.221 -19.279,2.622 z m -98.008,-2.871 c -3.148,-3.079 -3.2,-8.131 -0.121,-11.275 3.082,-3.148 8.13,-3.199 11.276,-0.122 3.147,3.079 3.201,8.13 0.12,11.275 -3.082,3.147 -8.127,3.201 -11.275,0.122 z m 28.958,-12.475 c -3.721,-3.239 -4.11,-8.884 -0.871,-12.604 3.246,-3.72 8.888,-4.114 12.61,-0.869 3.721,3.242 4.11,8.885 0.871,12.604 -3.244,3.724 -8.888,4.118 -12.61,0.869 z m 28.685,-14.648 c -4.325,-3.343 -5.117,-9.561 -1.775,-13.886 3.344,-4.325 9.562,-5.117 13.89,-1.78 4.323,3.35 5.117,9.57 1.774,13.896 -3.346,4.322 -9.567,5.117 -13.889,1.77 z M 188.253,446.314 c 8.983,-6.9 21.855,-5.206 28.747,3.773 6.899,8.985 5.207,21.852 -3.774,28.747 -8.978,6.895 -21.851,5.205 -28.745,-3.774 -6.895,-8.983 -5.206,-21.852 3.772,-28.746 z m 38.14,-30.903 c 7.337,-5.537 17.778,-4.078 23.316,3.26 5.539,7.336 4.078,17.779 -3.258,23.312 -7.341,5.541 -17.78,4.079 -23.316,-3.257 -5.538,-7.336 -4.08,-17.777 3.258,-23.315 z m 11.888,35.807 c 7.407,-6.302 18.521,-5.404 24.822,2.01 6.299,7.407 5.399,18.522 -2.01,24.823 -7.407,6.297 -18.521,5.396 -24.822,-2.008 -6.299,-7.413 -5.402,-18.529 2.01,-24.825 z m 14.377,35.614 c 7.413,-7.09 19.172,-6.82 26.26,0.593 7.088,7.415 6.821,19.172 -0.597,26.262 -7.412,7.086 -19.168,6.819 -26.257,-0.592 -7.089,-7.418 -6.821,-19.176 0.594,-26.263 z m 5.178,-135.442 c 5.469,-3.581 12.796,-2.053 16.377,3.411 3.579,5.467 2.05,12.798 -3.412,16.375 -5.466,3.581 -12.796,2.053 -16.378,-3.411 -3.576,-5.462 -2.048,-12.792 3.413,-16.375 z m 7.604,33.46 c 5.674,-4.208 13.684,-3.025 17.893,2.651 4.208,5.674 3.021,13.687 -2.652,17.893 -5.675,4.207 -13.686,3.02 -17.892,-2.65 -4.208,-5.677 -3.026,-13.691 2.651,-17.894 z m 9.934,33.545 c 5.826,-4.87 14.5,-4.097 19.374,1.732 4.874,5.825 4.096,14.5 -1.729,19.372 -5.832,4.876 -14.502,4.099 -19.377,-1.727 -4.873,-5.828 -4.096,-14.501 1.732,-19.377 z m 12.287,33.486 c 5.924,-5.568 15.24,-5.279 20.811,0.64 5.566,5.925 5.272,15.238 -0.644,20.806 -5.923,5.569 -15.241,5.279 -20.807,-0.645 -5.569,-5.92 -5.278,-15.235 0.64,-20.801 z m 14.686,33.254 c 5.952,-6.292 15.879,-6.562 22.169,-0.609 6.289,5.956 6.558,15.882 0.603,22.171 -5.953,6.288 -15.88,6.565 -22.167,0.606 -6.292,-5.954 -6.561,-15.88 -0.605,-22.168 z m 17.078,32.853 c 5.923,-7.029 16.428,-7.929 23.455,-2.007 7.033,5.921 7.933,16.423 2.012,23.455 -5.923,7.033 -16.428,7.931 -23.454,2.01 -7.035,-5.925 -7.934,-16.425 -2.013,-23.458 z m -6.036,-132.111 c 4.228,-3.472 10.464,-2.864 13.937,1.362 3.471,4.224 2.861,10.463 -1.363,13.932 -4.223,3.473 -10.464,2.866 -13.934,-1.361 -3.471,-4.222 -2.863,-10.459 1.36,-13.933 z m 10.225,31.292 c 4.412,-4.071 11.282,-3.802 15.355,0.602 4.074,4.406 3.805,11.283 -0.604,15.353 -4.402,4.074 -11.276,3.803 -15.351,-0.601 -4.071,-4.405 -3.802,-11.279 0.6,-15.354 z m 12.486,31.193 c 4.534,-4.703 12.019,-4.844 16.728,-0.313 4.705,4.531 4.849,12.016 0.316,16.721 -4.529,4.709 -12.017,4.849 -16.725,0.319 -4.702,-4.528 -4.848,-12.017 -0.319,-16.727 z m 14.773,30.94 c 4.597,-5.364 12.67,-5.988 18.036,-1.392 5.367,4.591 5.987,12.671 1.395,18.035 -4.594,5.367 -12.67,5.988 -18.036,1.393 -5.366,-4.593 -5.993,-12.669 -1.395,-18.036 z m 17.065,30.518 c 4.596,-6.048 13.226,-7.225 19.27,-2.626 6.049,4.598 7.226,13.226 2.63,19.274 -4.6,6.05 -13.229,7.221 -19.277,2.631 -6.048,-4.601 -7.221,-13.234 -2.623,-19.279 z m 2.874,-98.009 c 3.079,-3.149 8.128,-3.201 11.275,-0.121 3.147,3.082 3.196,8.13 0.12,11.276 -3.079,3.146 -8.13,3.201 -11.274,0.12 -3.148,-3.082 -3.203,-8.128 -0.121,-11.275 z m 12.472,28.959 c 3.24,-3.722 8.884,-4.11 12.606,-0.871 3.718,3.246 4.113,8.886 0.869,12.609 -3.242,3.721 -8.885,4.11 -12.606,0.871 -3.721,-3.243 -4.116,-8.889 -0.869,-12.609 z m 14.65,28.684 c 3.343,-4.326 9.561,-5.119 13.886,-1.774 4.324,3.343 5.118,9.561 1.779,13.888 -3.35,4.325 -9.569,5.119 -13.894,1.774 -4.322,-3.345 -5.117,-9.567 -1.771,-13.888 z M 179.827,218.493 c 6.9,8.983 5.205,21.854 -3.773,28.745 -8.984,6.901 -21.851,5.206 -28.748,-3.773 -6.894,-8.98 -5.204,-21.852 3.776,-28.745 8.982,-6.895 21.85,-5.206 28.745,3.773 z m 30.902,38.137 c 5.539,7.337 4.079,17.778 -3.257,23.317 -7.338,5.538 -17.781,4.079 -23.314,-3.26 -5.542,-7.339 -4.078,-17.779 3.258,-23.314 7.336,-5.538 17.776,-4.082 23.313,3.257 z m -35.806,11.891 c 6.302,7.407 5.403,18.519 -2.009,24.82 -7.408,6.301 -18.524,5.399 -24.824,-2.011 -6.297,-7.405 -5.396,-18.52 2.008,-24.821 7.413,-6.298 18.529,-5.403 24.825,2.012 z m -35.614,14.375 c 7.089,7.413 6.819,19.172 -0.594,26.259 -7.414,7.09 -19.17,6.824 -26.26,-0.596 -7.087,-7.411 -6.821,-19.169 0.592,-26.256 7.417,-7.09 19.175,-6.821 26.262,0.593 z m 135.441,5.179 c 3.583,5.468 2.054,12.795 -3.412,16.375 -5.466,3.581 -12.795,2.05 -16.372,-3.411 -3.584,-5.465 -2.053,-12.795 3.411,-16.378 5.459,-3.578 12.791,-2.047 16.373,3.414 z m -33.459,7.604 c 4.209,5.675 3.025,13.681 -2.653,17.893 -5.672,4.207 -13.684,3.02 -17.891,-2.652 -4.206,-5.674 -3.019,-13.688 2.649,-17.894 5.678,-4.206 13.692,-3.026 17.895,2.653 z m -33.546,9.934 c 4.871,5.826 4.098,14.501 -1.731,19.375 -5.825,4.873 -14.501,4.094 -19.372,-1.73 -4.876,-5.832 -4.1,-14.503 1.727,-19.377 5.827,-4.874 14.502,-4.097 19.376,1.732 z m -33.484,12.284 c 5.567,5.928 5.279,15.243 -0.641,20.813 -5.925,5.566 -15.238,5.272 -20.806,-0.643 -5.568,-5.924 -5.279,-15.242 0.644,-20.81 5.921,-5.565 15.236,-5.275 20.803,0.64 z m -33.256,14.688 c 6.293,5.954 6.562,15.879 0.61,22.168 -5.956,6.289 -15.883,6.56 -22.172,0.606 -6.287,-5.954 -6.565,-15.88 -0.604,-22.169 5.953,-6.292 15.879,-6.562 22.166,-0.605 z m -32.852,17.078 c 7.03,5.924 7.929,16.428 2.007,23.456 -5.921,7.034 -16.424,7.933 -23.455,2.011 -7.034,-5.923 -7.931,-16.428 -2.009,-23.453 5.924,-7.036 16.424,-7.935 23.457,-2.014 z m 132.111,-6.037 c 3.472,4.23 2.864,10.466 -1.362,13.94 -4.224,3.471 -10.463,2.859 -13.933,-1.365 -3.471,-4.221 -2.865,-10.463 1.363,-13.933 4.221,-3.471 10.458,-2.863 13.932,1.358 z m -31.294,10.226 c 4.073,4.414 3.805,11.281 -0.599,15.355 -4.407,4.075 -11.283,3.805 -15.353,-0.603 -4.075,-4.402 -3.804,-11.275 0.6,-15.352 4.405,-4.072 11.279,-3.803 15.352,0.6 z m -31.192,12.486 c 4.703,4.536 4.845,12.02 0.314,16.728 -4.53,4.705 -12.016,4.85 -16.722,0.317 -4.708,-4.529 -4.848,-12.02 -0.318,-16.725 4.529,-4.702 12.017,-4.85 16.726,-0.32 z m -30.939,14.774 c 5.363,4.596 5.988,12.67 1.392,18.036 -4.591,5.367 -12.671,5.986 -18.035,1.394 -5.366,-4.595 -5.988,-12.669 -1.393,-18.036 4.594,-5.367 12.669,-5.993 18.036,-1.394 z m -30.517,17.065 c 6.046,4.596 7.224,13.226 2.625,19.27 -4.599,6.049 -13.227,7.225 -19.273,2.63 -6.05,-4.6 -7.223,-13.231 -2.632,-19.278 4.601,-6.047 13.233,-7.22 19.28,-2.622 z m 98.009,2.873 c 3.147,3.079 3.199,8.129 0.118,11.274 -3.082,3.149 -8.128,3.197 -11.274,0.121 -3.147,-3.079 -3.201,-8.129 -0.12,-11.274 3.082,-3.147 8.128,-3.202 11.276,-0.121 z m -28.959,12.472 c 3.72,3.241 4.11,8.885 0.87,12.606 -3.245,3.718 -8.887,4.114 -12.609,0.87 -3.722,-3.243 -4.11,-8.885 -0.871,-12.606 3.243,-3.722 8.888,-4.117 12.61,-0.87 z m -28.685,14.65 c 4.326,3.344 5.118,9.56 1.774,13.887 -3.344,4.323 -9.562,5.117 -13.889,1.778 -4.324,-3.349 -5.117,-9.568 -1.774,-13.895 3.346,-4.321 9.568,-5.116 13.889,-1.77 z M 407.649,210.065 c -8.982,6.9 -21.854,5.206 -28.747,-3.773 -6.898,-8.983 -5.206,-21.852 3.775,-28.746 8.978,-6.894 21.851,-5.206 28.744,3.773 6.895,8.983 5.206,21.852 -3.772,28.746 z m -38.139,30.902 c -7.337,5.539 -17.778,4.079 -23.317,-3.257 -5.538,-7.339 -4.077,-17.781 3.259,-23.314 7.341,-5.542 17.78,-4.079 23.316,3.257 5.538,7.336 4.08,17.779 -3.258,23.314 z m -11.888,-35.806 c -7.407,6.301 -18.521,5.402 -24.822,-2.008 -6.3,-7.407 -5.4,-18.523 2.01,-24.824 7.407,-6.298 18.521,-5.395 24.822,2.009 6.3,7.413 5.402,18.528 -2.01,24.823 z m -14.377,-35.612 c -7.414,7.09 -19.173,6.819 -26.26,-0.594 -7.089,-7.416 -6.821,-19.173 0.596,-26.263 7.412,-7.087 19.169,-6.819 26.257,0.594 7.09,7.416 6.821,19.176 -0.593,26.263 z m -5.179,135.438 c -5.468,3.584 -12.795,2.056 -16.376,-3.411 -3.579,-5.465 -2.049,-12.795 3.412,-16.372 5.465,-3.584 12.795,-2.053 16.377,3.411 3.577,5.459 2.049,12.791 -3.413,16.372 z m -7.604,-33.459 c -5.673,4.209 -13.683,3.026 -17.893,-2.652 -4.208,-5.672 -3.019,-13.685 2.653,-17.891 5.674,-4.207 13.685,-3.02 17.892,2.649 4.208,5.679 3.026,13.69 -2.652,17.894 z m -9.934,-33.546 c -5.826,4.872 -14.5,4.101 -19.374,-1.732 -4.874,-5.823 -4.094,-14.5 1.73,-19.371 5.832,-4.874 14.502,-4.1 19.377,1.729 4.873,5.827 4.095,14.5 -1.733,19.374 z M 308.241,204.5 c -5.924,5.565 -15.24,5.277 -20.809,-0.641 -5.567,-5.927 -5.274,-15.239 0.643,-20.807 5.923,-5.569 15.24,-5.281 20.807,0.646 5.568,5.919 5.277,15.234 -0.641,20.802 z m -14.685,-33.258 c -5.952,6.295 -15.878,6.563 -22.169,0.612 -6.289,-5.958 -6.559,-15.883 -0.604,-22.172 5.954,-6.286 15.88,-6.565 22.167,-0.606 6.292,5.954 6.563,15.88 0.606,22.166 z m -17.078,-32.85 c -5.923,7.03 -16.428,7.928 -23.455,2.007 -7.034,-5.92 -7.934,-16.422 -2.011,-23.456 5.922,-7.033 16.426,-7.929 23.453,-2.008 7.035,5.924 7.933,16.422 2.013,23.457 z m 6.037,132.11 c -4.23,3.474 -10.465,2.865 -13.939,-1.362 -3.471,-4.224 -2.859,-10.463 1.363,-13.934 4.223,-3.471 10.464,-2.862 13.934,1.365 3.473,4.221 2.864,10.457 -1.358,13.931 z m -10.226,-31.294 c -4.413,4.073 -11.282,3.803 -15.355,-0.6 -4.074,-4.405 -3.806,-11.281 0.604,-15.354 4.402,-4.073 11.275,-3.803 15.352,0.602 4.07,4.406 3.801,11.279 -0.601,15.352 z m -12.486,-31.192 c -4.534,4.704 -12.019,4.846 -16.728,0.314 -4.705,-4.53 -4.849,-12.015 -0.316,-16.723 4.528,-4.708 12.017,-4.847 16.725,-0.317 4.702,4.53 4.847,12.018 0.319,16.726 z M 245.03,177.077 c -4.597,5.363 -12.67,5.986 -18.037,1.392 -5.366,-4.589 -5.986,-12.67 -1.394,-18.033 4.593,-5.367 12.67,-5.99 18.036,-1.395 5.365,4.595 5.993,12.67 1.395,18.036 z m -17.065,-30.516 c -4.597,6.045 -13.226,7.223 -19.271,2.623 -6.048,-4.599 -7.225,-13.225 -2.63,-19.271 4.6,-6.052 13.229,-7.224 19.278,-2.632 6.048,4.602 7.221,13.235 2.623,19.28 z m -2.873,98.007 c -3.079,3.148 -8.13,3.202 -11.276,0.12 -3.148,-3.084 -3.196,-8.129 -0.12,-11.274 3.079,-3.147 8.13,-3.2 11.274,-0.121 3.148,3.082 3.202,8.128 0.122,11.275 z m -12.473,-28.959 c -3.241,3.72 -8.885,4.112 -12.606,0.87 -3.719,-3.243 -4.113,-8.885 -0.869,-12.608 3.242,-3.723 8.884,-4.108 12.606,-0.872 3.721,3.242 4.116,8.891 0.869,12.61 z m -16.421,-42.572 c -4.325,-3.344 -10.545,-2.551 -13.894,1.774 -3.339,4.325 -2.545,10.543 1.779,13.889 4.325,3.344 10.542,2.551 13.886,-1.777 3.346,-4.319 2.551,-10.54 -1.771,-13.886 z"
           style="fill:none;stroke:#ffffff;stroke-width:0.121;stroke-linecap:butt;stroke-linejoin:miter;stroke-miterlimit:4;stroke-dasharray:none;stroke-opacity:1"
           id="path7906"
           inkscape:connector-curvature="0" /></g></g></g></svg>